<?xml version="1.0" standalone="no"?>
<!DOCTYPE svg PUBLIC "-//W3C//DTD SVG 20010904//EN"
 "http://www.w3.org/TR/2001/REC-SVG-20010904/DTD/svg10.dtd">
<svg version="1.0" xmlns="http://www.w3.org/2000/svg"
 width="507.000000pt" height="323.000000pt" viewBox="0 0 507.000000 323.000000"
 preserveAspectRatio="xMidYMid meet">

<g transform="translate(0.000000,323.000000) scale(0.100000,-0.100000)"
fill="#000000" stroke="none">
<path d="M3457 3190 c-32 -10 -62 -21 -65 -25 -4 -3 43 -3 103 1 61 3 121 7
134 8 15 1 25 8 27 20 2 16 -2 17 -29 11 -35 -8 -39 -8 -82 -1 -16 2 -56 -4
-88 -14z"/>
<path d="M3720 3195 c-7 -8 -11 -15 -9 -15 2 -1 50 -3 105 -5 56 -3 129 -9
163 -13 54 -8 61 -7 61 9 0 15 -15 18 -105 24 -57 4 -118 5 -135 3 -17 -3 -33
-1 -36 4 -8 13 -30 9 -44 -7z"/>
<path d="M3340 3182 c-38 -6 -56 -42 -22 -42 17 0 60 36 51 43 -2 2 -15 1 -29
-1z"/>
<path d="M4100 3155 c0 -12 8 -16 33 -13 17 2 32 8 32 13 0 6 -15 11 -32 13
-25 3 -33 -1 -33 -13z"/>
<path d="M3197 3135 c-29 -26 -57 -33 -57 -15 0 6 -22 -2 -50 -16 -27 -14 -50
-30 -50 -34 0 -13 60 7 81 26 11 10 19 12 19 6 0 -7 17 -6 53 5 62 18 59 16
51 37 -8 21 -14 20 -47 -9z"/>
<path d="M4216 3122 c5 -5 43 -22 85 -39 131 -52 263 -137 314 -201 25 -31 54
-68 65 -80 27 -32 26 -51 -2 -46 -13 2 -18 2 -12 -1 8 -4 10 -21 7 -44 -3 -23
-1 -41 6 -45 7 -5 11 7 11 35 0 32 3 40 11 32 19 -19 49 -117 38 -124 -5 -3
-7 -12 -4 -20 3 -8 -4 -32 -16 -54 -12 -22 -34 -65 -49 -95 -45 -87 -94 -157
-108 -152 -8 2 -11 -6 -8 -30 2 -18 -2 -40 -9 -48 -7 -8 -18 -34 -24 -58 -8
-28 -27 -56 -59 -87 -53 -51 -46 -61 11 -14 38 32 74 92 97 164 16 50 47 95
66 95 8 0 14 9 14 20 0 11 12 39 27 63 l27 42 7 -33 c12 -57 21 -50 16 13 -3
32 -3 73 0 90 l7 30 17 -40 18 -40 -4 67 c-3 52 -1 69 10 76 12 6 13 13 3 40
-10 27 -10 34 0 41 10 6 7 16 -14 41 -21 25 -25 36 -17 49 14 22 5 41 -18 41
-14 0 -21 9 -26 30 -4 21 -17 36 -44 52 -22 12 -39 29 -39 39 0 10 -12 21 -30
28 -20 7 -30 17 -30 30 0 17 -6 21 -29 21 -19 0 -42 11 -62 30 -24 22 -39 28
-57 23 -18 -4 -24 -1 -29 16 -3 12 -16 24 -32 27 -14 3 -39 10 -55 15 -36 11
-93 12 -80 1z"/>
<path d="M2961 3059 c-20 -19 -37 -29 -47 -25 -9 4 -30 -6 -51 -23 -20 -16
-41 -27 -47 -25 -7 3 -27 -11 -44 -30 -18 -20 -44 -42 -60 -50 -15 -8 -47 -37
-71 -65 -25 -28 -50 -50 -55 -48 -15 5 -36 -18 -37 -40 0 -14 -2 -15 -6 -3
-10 25 -43 -131 -36 -172 3 -21 3 -38 1 -38 -10 0 -68 60 -68 70 0 14 -17 13
-26 -1 -4 -7 2 -16 12 -22 31 -17 74 -64 74 -81 0 -24 -20 -19 -47 10 l-24 26
-24 -22 c-16 -15 -24 -18 -27 -9 -2 7 -10 -3 -17 -22 -7 -19 -24 -57 -38 -85
-22 -44 -24 -54 -13 -75 7 -13 18 -27 24 -31 16 -10 14 -312 -2 -413 -16 -105
-2 -343 27 -430 12 -39 20 -51 20 -35 1 24 2 24 21 -8 22 -36 44 -95 55 -152
4 -19 29 -80 56 -136 38 -79 67 -122 133 -197 l85 -95 -25 -23 c-30 -29 -75
-105 -104 -179 -71 -177 31 -345 287 -474 205 -103 523 -150 928 -136 253 9
490 39 568 72 54 22 102 54 102 67 0 4 17 22 38 40 20 18 40 44 43 57 3 13 9
24 13 24 7 0 34 76 66 185 9 33 22 65 27 72 25 31 -26 143 -80 177 -60 37 -68
52 -46 78 19 20 19 21 -1 15 -11 -3 -35 -8 -52 -12 -18 -4 -33 -10 -33 -15 0
-18 -99 -116 -140 -139 -24 -13 -40 -19 -36 -12 11 16 -5 13 -26 -6 -35 -31
-18 -3 31 51 50 55 84 133 95 221 4 28 0 20 -13 -25 -40 -138 -40 -139 -146
-146 -22 -1 -67 -10 -101 -19 l-61 -17 -12 -53 c-7 -29 -18 -61 -26 -71 -12
-15 -14 -16 -9 -2 4 13 1 15 -15 11 -15 -4 -19 -1 -16 14 2 10 6 37 8 61 5 42
5 42 -26 42 -46 0 -53 -8 -72 -77 -16 -56 -20 -62 -41 -61 -26 2 -26 4 -8 100
l6 28 -64 1 c-35 0 -72 2 -83 4 -11 2 -55 6 -98 9 -43 3 -82 8 -87 11 -11 7
16 -88 37 -130 l15 -30 -33 30 c-19 16 -28 23 -21 15 6 -8 12 -20 12 -28 0
-25 -48 42 -61 86 -14 47 -31 61 -86 68 -20 2 -50 11 -66 19 -17 8 -32 13 -34
11 -2 -2 0 -27 5 -55 8 -41 7 -49 -4 -41 -9 8 -15 6 -23 -7 -8 -14 -10 -15
-11 -3 0 8 -3 25 -6 38 -5 18 -3 21 10 16 12 -4 16 0 16 15 0 22 -20 30 -20 9
-1 -7 -11 5 -23 27 -12 22 -26 40 -32 40 -25 0 -170 83 -189 108 -11 16 -41
50 -64 75 l-44 47 7 -40 c3 -22 8 -57 10 -77 3 -20 13 -62 24 -94 19 -52 19
-55 2 -40 -22 20 -31 20 -31 0 0 -24 -18 -7 -42 39 -14 28 -16 38 -6 30 12
-10 15 -9 15 5 2 29 -40 151 -49 146 -5 -3 -5 -11 0 -17 5 -7 5 -23 1 -37 -8
-27 -7 -29 -15 50 -2 19 -7 67 -10 105 -5 51 -13 79 -31 101 -15 20 -23 44
-23 69 0 22 -7 46 -17 57 -15 16 -15 21 -3 28 12 7 12 10 -3 16 -14 5 -16 15
-12 58 4 28 12 74 19 101 7 28 11 67 10 88 -2 20 1 37 6 37 5 0 8 9 7 19 0 11
-6 17 -14 14 -10 -4 -11 3 -6 28 3 19 10 35 14 37 4 2 5 18 2 37 -4 25 0 42
16 64 12 17 27 30 33 28 19 -4 18 18 -2 31 -17 11 -21 8 -37 -21 -17 -32 -17
-32 -21 -7 -2 14 -6 32 -9 40 -3 8 -5 21 -4 29 1 7 -10 26 -25 42 -27 28 -27
29 -9 49 10 11 26 20 37 20 10 0 18 3 18 8 0 4 18 7 40 6 21 0 37 3 34 8 -8
12 3 10 37 -8 29 -14 80 -10 63 6 -19 16 -100 37 -119 30 -39 -14 -148 -23
-141 -11 5 7 -2 11 -16 11 -45 1 7 20 72 27 46 4 58 8 45 15 -10 6 -37 6 -71
0 -49 -8 -54 -7 -54 10 0 20 21 23 51 8 16 -9 19 -7 19 9 0 29 -54 34 -80 6
-24 -25 -38 -85 -21 -85 7 0 19 -6 27 -14 11 -11 11 -16 1 -19 -8 -4 -8 -6 0
-6 13 -1 5 -41 -8 -41 -5 0 -6 7 -3 15 6 15 -11 45 -25 45 -12 0 -30 -113 -24
-149 3 -20 2 -31 -4 -28 -5 3 -7 -10 -5 -31 4 -34 4 -35 -13 -19 -13 13 -15
27 -11 60 16 108 18 227 5 244 -9 10 -9 14 -2 10 13 -8 37 28 29 42 -6 9 -56
21 -56 14 0 -2 5 -14 11 -26 10 -20 10 -21 -5 -6 -9 8 -18 25 -21 37 -2 12 -7
27 -10 32 -4 6 6 10 22 11 l28 1 -27 11 c-16 6 -28 17 -28 24 0 7 -5 13 -11
13 -5 0 -7 5 -3 11 3 6 17 8 31 5 23 -6 24 -6 8 18 -9 14 -26 28 -36 31 -24 8
-20 29 6 33 10 3 15 0 11 -7 -4 -6 -1 -11 7 -11 14 0 29 -22 31 -45 2 -24 42
-101 61 -117 47 -40 58 -2 12 46 -15 16 -27 36 -27 45 0 9 -8 28 -17 41 -35
50 -53 94 -43 104 6 6 10 44 10 86 0 59 6 86 25 128 52 112 189 232 379 330
49 25 84 48 78 50 -6 2 -8 10 -5 18 9 24 -14 16 -46 -17z m-491 -591 l29 -32
-34 -30 c-19 -17 -35 -42 -37 -56 -2 -14 -6 -27 -9 -30 -3 -3 -13 -36 -21 -75
l-16 -70 -1 52 c-1 28 -3 58 -7 66 -3 8 6 28 20 45 16 18 26 42 26 60 0 17 4
34 10 37 5 3 7 19 3 35 -7 38 1 38 37 -2z m20 -118 c0 -5 -2 -10 -4 -10 -3 0
-8 5 -11 10 -3 6 -1 10 4 10 6 0 11 -4 11 -10z m-65 -192 c-9 -59 -27 -129
-31 -125 -4 4 14 121 22 150 10 33 16 17 9 -25z m190 -360 c-4 -13 -6 -36 -6
-51 1 -20 -2 -26 -10 -21 -9 5 -10 1 -7 -14 4 -12 2 -22 -3 -22 -11 0 -8 69 3
76 4 3 8 16 8 30 0 13 5 24 11 24 7 0 9 -8 4 -22z m-68 -110 c-3 -8 -6 -5 -6
6 -1 11 2 17 5 13 3 -3 4 -12 1 -19z m-20 -10 c-3 -8 -6 -5 -6 6 -1 11 2 17 5
13 3 -3 4 -12 1 -19z m14 -35 c-12 -20 -14 -14 -5 12 4 9 9 14 11 11 3 -2 0
-13 -6 -23z m-4 -65 c-3 -7 -5 -2 -5 12 0 14 2 19 5 13 2 -7 2 -19 0 -25z
m163 -138 c-6 -12 -14 -20 -17 -17 -2 3 1 14 8 26 17 26 24 19 9 -9z m-136
-107 c-4 -32 -11 -67 -15 -78 -7 -15 -8 -13 -4 10 2 17 7 51 11 78 3 26 8 47
11 47 2 0 1 -26 -3 -57z m285 -478 c0 -5 -4 -3 -9 5 -5 8 -9 22 -9 30 0 16 17
-16 18 -35z m140 -149 c-3 -3 -11 5 -18 17 -13 21 -12 21 5 5 10 -10 16 -20
13 -22z"/>
<path d="M3608 3083 c7 -3 16 -2 19 1 4 3 -2 6 -13 5 -11 0 -14 -3 -6 -6z"/>
<path d="M3648 3083 c7 -3 16 -2 19 1 4 3 -2 6 -13 5 -11 0 -14 -3 -6 -6z"/>
<path d="M3713 3083 c15 -2 37 -2 50 0 12 2 0 4 -28 4 -27 0 -38 -2 -22 -4z"/>
<path d="M3828 3073 c7 -3 16 -2 19 1 4 3 -2 6 -13 5 -11 0 -14 -3 -6 -6z"/>
<path d="M1105 2981 c-68 -19 -104 -42 -123 -78 -53 -98 70 -214 285 -269 166
-43 324 -21 382 52 29 37 26 74 -11 130 -38 56 -126 113 -228 145 -71 23 -251
35 -305 20z"/>
<path d="M3604 2931 c-115 -19 -222 -70 -282 -135 -35 -38 -42 -52 -42 -86 0
-115 121 -193 319 -206 152 -10 320 36 410 112 126 109 66 248 -131 300 -67
17 -208 25 -274 15z"/>
<path d="M616 2911 c-3 -5 1 -11 9 -15 9 -3 15 0 15 9 0 16 -16 20 -24 6z"/>
<path d="M558 2883 c-5 -28 0 -41 22 -60 16 -15 20 -22 11 -23 -11 0 -9 -4 5
-14 13 -10 23 -11 31 -4 18 15 16 28 -4 28 -13 0 -14 3 -5 12 13 13 16 45 5
51 -18 10 -63 17 -65 10z"/>
<path d="M1890 2814 c0 -5 12 -26 26 -47 14 -21 27 -46 29 -55 2 -9 9 -33 14
-52 13 -43 14 -49 1 -30 -13 20 -13 -1 0 -37 9 -25 8 -26 -4 -10 -20 26 -25
21 -19 -25 4 -38 3 -41 -10 -25 -21 25 -27 21 -20 -15 8 -39 42 -76 53 -58 13
21 31 -24 24 -59 -8 -40 0 -39 20 1 16 31 15 32 -11 60 -23 24 -25 30 -13 38
8 5 11 10 5 10 -5 0 -4 4 4 9 11 7 11 13 0 32 -12 23 -11 23 6 9 17 -14 17
-14 0 20 -13 26 -14 32 -3 23 12 -11 14 -6 12 30 -2 57 -2 57 -21 57 -13 0
-15 3 -5 8 9 6 5 18 -16 48 -33 45 -72 82 -72 68z"/>
<path d="M650 2785 c-7 -8 -8 -15 -2 -15 5 0 15 7 22 15 7 8 8 15 2 15 -5 0
-15 -7 -22 -15z"/>
<path d="M528 2776 c-15 -11 -14 -13 11 -13 20 0 28 4 24 14 -6 16 -13 16 -35
-1z"/>
<path d="M680 2755 c-7 -8 -16 -12 -21 -9 -5 3 -17 1 -26 -5 -15 -8 -16 -10
-3 -14 8 -3 23 -8 33 -11 11 -4 16 -2 12 5 -4 6 1 16 11 24 11 7 16 16 13 19
-3 4 -12 0 -19 -9z"/>
<path d="M4620 2724 c0 -8 5 -12 10 -9 6 4 8 11 5 16 -9 14 -15 11 -15 -7z"/>
<path d="M560 2723 c-14 -3 -29 -8 -33 -13 -5 -4 3 -5 17 -3 14 3 32 0 40 -6
11 -9 15 -7 19 9 5 20 3 21 -43 13z"/>
<path d="M707 2700 c-3 -13 -14 -20 -29 -20 -22 0 -22 -1 7 -24 l30 -24 -27
-7 c-14 -4 -34 -15 -42 -24 -38 -41 -248 -602 -233 -618 2 -2 23 41 46 94 23
54 48 111 56 126 8 16 15 35 15 42 0 7 3 15 8 17 10 4 109 215 118 252 4 17 2
31 -4 35 -16 10 -3 49 19 56 25 8 79 -3 79 -16 0 -6 5 -7 10 -4 13 8 68 -37
63 -51 -3 -9 87 -64 103 -64 11 0 2 29 -16 48 -12 12 -16 22 -10 22 5 0 10 7
10 16 0 12 -7 15 -27 11 -38 -7 -51 1 -45 29 3 19 0 24 -17 24 -11 0 -21 -4
-21 -9 0 -11 -62 10 -72 24 -11 15 -10 55 2 55 6 0 10 7 10 15 0 22 -27 18
-33 -5z m158 -160 c3 -5 1 -10 -4 -10 -6 0 -11 5 -11 10 0 6 2 10 4 10 3 0 8
-4 11 -10z"/>
<path d="M762 2658 c-16 -16 -15 -28 2 -28 16 0 29 27 17 34 -4 3 -13 0 -19
-6z"/>
<path d="M470 2562 c-29 -42 -70 -97 -90 -122 -60 -74 -96 -124 -83 -117 6 4
58 69 114 145 56 75 107 143 112 150 6 7 8 15 5 17 -2 3 -29 -30 -58 -73z"/>
<path d="M529 2532 c-15 -43 -30 -86 -33 -97 -4 -11 0 -7 9 8 26 45 65 156 57
161 -4 2 -19 -30 -33 -72z"/>
<path d="M720 2550 c30 -4 59 -3 64 1 6 5 -18 8 -55 8 l-64 -2 55 -7z"/>
<path d="M4814 2541 c10 -11 15 -25 11 -30 -3 -6 -2 -11 4 -11 18 0 20 16 5
38 -8 12 -20 22 -26 22 -6 0 -3 -9 6 -19z"/>
<path d="M953 2514 c-4 -10 -2 -19 5 -22 7 -2 9 -8 6 -13 -3 -6 -1 -16 5 -23
9 -10 7 -15 -9 -19 -11 -3 -20 0 -20 5 0 7 -4 7 -12 1 -7 -6 -21 -10 -31 -10
-13 0 -16 6 -11 21 l7 21 -23 -20 c-20 -18 -198 -371 -216 -428 -4 -12 -14
-33 -24 -47 -9 -14 -26 -47 -37 -75 -12 -27 -51 -113 -88 -190 -99 -208 -98
-203 -75 -215 10 -5 32 -10 47 -10 16 0 38 -7 49 -15 18 -14 18 -14 -11 -16
-87 -5 -102 -7 -121 -13 -14 -4 -30 -27 -45 -59 -25 -58 -30 -131 -19 -267 17
-190 21 -320 11 -320 -35 0 -44 66 -65 482 -2 37 -9 64 -19 76 -19 20 -23 67
-7 77 6 4 8 -7 4 -27 -4 -28 -3 -30 6 -15 7 10 9 29 6 41 -4 18 1 26 29 39 30
14 42 31 77 109 23 51 75 160 116 242 64 131 71 151 58 164 -12 13 -17 12 -37
-7 -13 -11 -19 -21 -14 -21 4 0 2 -8 -6 -17 -26 -34 -39 -63 -39 -92 0 -28
-21 -57 -33 -45 -5 5 -107 -186 -107 -201 0 -4 4 -4 9 -1 4 3 16 -1 26 -8 16
-12 15 -13 -11 -9 -29 5 -32 1 -69 -78 -21 -45 -39 -96 -39 -113 0 -38 13
-193 20 -221 5 -25 34 -291 34 -313 -1 -35 -44 41 -47 82 -2 23 -7 66 -13 96
-5 30 -12 84 -14 119 -3 36 -10 69 -16 75 -12 12 -14 29 10 -158 12 -90 17
-162 12 -165 -55 -36 -84 -62 -120 -108 -54 -72 -73 -132 -60 -198 5 -28 12
-70 17 -95 10 -61 32 -99 87 -154 79 -79 106 -94 270 -150 187 -65 252 -74
579 -83 258 -7 394 4 598 48 194 42 285 86 383 185 130 131 174 267 121 370
-40 75 -86 122 -157 157 -44 22 -66 39 -68 52 -1 11 38 92 88 180 112 198 187
350 193 390 2 17 9 42 15 57 6 14 16 53 22 87 9 48 8 67 -3 93 -8 19 -17 70
-21 113 -4 44 -11 105 -16 135 -5 30 -21 162 -36 293 -16 130 -32 237 -37 237
-5 0 -7 -10 -4 -23 4 -12 13 -92 22 -177 9 -85 25 -231 36 -325 10 -93 19
-183 18 -200 l-1 -30 -8 30 c-5 17 -18 111 -30 210 -11 99 -24 196 -27 215 -6
35 -6 35 -14 8 -4 -15 -3 -55 2 -90 5 -35 9 -70 10 -78 0 -8 3 -22 6 -30 3 -8
7 -33 9 -55 2 -31 0 -36 -7 -22 -17 30 -69 256 -69 301 0 61 -11 107 -24 103
-6 -2 -10 -16 -8 -30 4 -28 -6 -35 -25 -16 -6 6 -13 7 -16 2 -11 -17 -16 -652
-6 -659 6 -3 3 -12 -8 -21 -17 -13 -17 -14 0 -9 9 3 17 1 17 -4 0 -6 -4 -10
-10 -10 -5 0 -10 -5 -10 -11 0 -5 4 -8 8 -5 5 3 9 -1 9 -9 0 -8 -4 -12 -9 -9
-4 3 -8 0 -8 -5 0 -6 6 -11 14 -11 10 0 15 -24 21 -91 4 -51 9 -98 12 -105 3
-8 1 -14 -4 -14 -10 0 -11 1 -19 73 -10 79 -21 53 -27 -65 -7 -118 -25 -191
-57 -226 -10 -11 -16 -23 -13 -26 4 -3 2 -6 -3 -6 -6 0 -16 -16 -23 -35 -7
-19 -17 -35 -22 -35 -6 0 -8 -4 -5 -9 3 -5 -2 -15 -11 -22 -14 -12 -15 -11 -8
11 4 14 15 39 24 55 20 36 57 130 65 165 6 27 10 816 4 840 -1 8 -8 20 -14 27
-11 12 -30 115 -25 141 1 6 -3 12 -9 12 -6 0 -1 14 11 32 13 18 25 26 27 19 2
-6 -2 -19 -10 -28 -8 -10 -8 -14 -1 -10 7 4 16 0 22 -10 20 -34 12 49 -9 96
-11 24 -20 45 -20 46 0 2 14 6 31 10 16 4 28 12 26 18 -2 7 3 17 11 23 12 9
11 15 -5 42 -22 36 -36 32 -26 -7 6 -26 6 -26 -16 -7 -11 11 -24 16 -28 13 -3
-4 -7 -46 -8 -94 -3 -101 -20 -144 -65 -163 l-30 -12 0 -127 c0 -69 7 -164 15
-211 25 -148 75 -513 75 -553 0 -27 -4 -36 -12 -32 -7 4 -5 0 5 -8 21 -17 23
-41 2 -33 -8 3 -15 1 -15 -4 0 -6 5 -10 10 -10 6 0 9 -20 8 -49 -2 -27 -5 -47
-7 -45 -3 3 -11 -8 -18 -23 -11 -23 -12 -24 -9 -5 2 12 0 22 -5 22 -5 0 -9 -7
-9 -15 0 -9 -9 -34 -20 -56 -12 -22 -19 -48 -16 -57 3 -9 1 -24 -5 -32 -8 -12
-9 -9 -4 10 4 18 0 14 -15 -12 -11 -21 -22 -38 -24 -38 -2 0 16 48 40 107 24
59 46 126 50 149 5 34 -2 115 -20 237 -7 51 -12 12 -13 -101 0 -114 -3 -134
-26 -191 -45 -108 -179 -343 -199 -349 -10 -2 -15 -8 -12 -13 3 -5 0 -9 -5 -9
-20 0 -11 24 45 125 30 55 74 138 97 185 l42 85 0 170 c0 289 -15 686 -29 770
-13 72 -12 81 2 93 15 11 15 18 1 71 l-15 59 24 12 c17 7 28 8 37 0 10 -8 14
-7 18 2 2 7 5 -4 5 -25 0 -44 7 -56 24 -39 9 9 9 12 0 12 -7 0 -12 8 -12 18 0
27 28 62 45 56 20 -8 29 18 21 61 -8 39 -26 48 -26 13 0 -13 -5 -30 -10 -38
-8 -12 -10 -9 -10 13 0 41 -23 29 -34 -19 l-9 -39 -12 35 c-14 40 -29 46 -33
12 -2 -13 -13 -27 -25 -31 -13 -5 -32 -30 -45 -60 -13 -27 -36 -61 -52 -75
-16 -13 -26 -28 -22 -32 4 -5 -1 -3 -10 5 -12 9 -29 10 -59 4 l-43 -8 -22 -80
c-25 -90 -30 -140 -13 -129 6 3 15 0 20 -7 6 -9 9 3 10 36 0 28 4 59 9 70 13
30 12 -31 -5 -240 -15 -200 -29 -285 -48 -298 -8 -6 -9 -10 -1 -13 7 -3 8 -20
2 -52 -5 -26 -9 -53 -10 -59 -1 -7 -4 -13 -7 -13 -4 0 -5 -23 -4 -51 2 -36 0
-48 -8 -43 -8 4 -9 3 -5 -4 4 -7 4 -17 0 -24 -4 -7 -9 -26 -11 -43 -7 -60 -10
-70 -24 -70 -18 0 -20 92 -3 140 6 19 8 37 4 42 -4 4 -4 33 1 63 5 30 11 87
13 125 3 39 12 139 20 224 9 85 14 156 12 158 -4 4 -76 -239 -121 -410 -20
-76 -43 -157 -51 -179 -17 -50 -18 -82 -2 -72 7 4 0 -12 -14 -37 -25 -42 -68
-195 -104 -366 -14 -67 -20 -83 -35 -83 -12 0 -16 -5 -13 -15 4 -8 1 -15 -6
-15 -6 0 -9 -4 -6 -9 7 -10 -22 -37 -30 -28 -8 7 37 247 78 416 22 94 26 126
17 131 -8 6 -7 9 6 11 14 3 30 45 72 189 71 242 213 758 213 773 0 7 5 29 11
50 9 34 13 37 46 37 l36 0 -6 -52 c-4 -33 -3 -48 3 -42 6 6 13 38 16 72 7 64
24 86 24 31 0 -24 3 -30 16 -25 9 3 18 6 20 6 3 0 9 12 15 28 6 15 13 22 16
15 2 -6 -3 -27 -11 -47 l-15 -36 44 45 c25 25 45 50 45 56 0 5 5 7 11 3 7 -4
10 1 7 11 -5 29 -27 29 -38 1 -11 -31 -25 -33 -40 -6 -15 29 -40 25 -40 -5 0
-14 -4 -25 -10 -25 -5 0 -17 11 -26 25 -21 32 -44 32 -44 1 0 -19 -4 -22 -22
-19 -17 3 -36 -10 -78 -51 -30 -31 -57 -56 -60 -56 -5 0 -6 36 -1 63 0 4 17
15 36 24 36 17 43 27 25 38 -6 4 -35 -19 -65 -50 -30 -31 -59 -53 -65 -50 -6
3 -13 -1 -16 -9 -7 -19 -44 -21 -44 -3 0 13 36 48 42 41 3 -2 3 9 0 24 -2 18
4 37 16 52 27 33 39 19 19 -22 -9 -18 -12 -37 -8 -41 10 -10 41 2 41 15 0 6
-7 7 -16 4 -31 -12 -4 11 35 30 43 20 52 40 25 51 -10 4 -22 -1 -29 -10 -17
-23 -24 -21 -35 9 -9 22 -14 25 -38 19 -35 -9 -40 -14 -22 -26 12 -8 9 -9 -10
-5 -22 5 -49 -6 -165 -68 -16 -9 -41 -16 -55 -16 l-25 1 28 15 c15 8 27 19 27
25 0 5 -18 -1 -39 -13 -22 -12 -35 -26 -29 -29 6 -4 6 -9 1 -12 -6 -4 -20 -50
-33 -104 -42 -183 -81 -338 -112 -438 -17 -55 -46 -152 -65 -215 -37 -123 -58
-162 -51 -96 4 33 3 36 -9 20 -7 -10 -13 -13 -13 -7 0 22 50 219 89 353 71
238 141 495 141 514 0 12 5 16 16 12 8 -3 37 5 63 19 27 13 51 22 54 19 2 -3
7 2 11 11 5 13 1 15 -15 10 l-21 -7 21 21 c12 12 25 21 30 21 5 0 22 5 37 10
35 14 20 30 -28 32 -24 1 -35 6 -34 16 2 22 -23 27 -31 6z m192 -144 l26 -10
-25 -42 c-13 -24 -57 -153 -96 -288 -40 -135 -81 -274 -92 -310 -11 -36 -25
-85 -33 -110 -7 -25 -29 -98 -49 -163 -20 -65 -36 -124 -36 -131 0 -12 68 -31
77 -22 7 7 107 456 163 730 22 110 43 202 45 205 11 10 47 7 51 -4 5 -13 -36
-251 -66 -385 -73 -321 -119 -543 -115 -550 3 -4 15 -6 28 -4 20 4 20 4 2 -5
-11 -4 -23 -7 -27 -5 -16 10 -47 -150 -78 -411 -6 -49 -14 -101 -17 -114 -5
-20 -7 -21 -15 -7 -11 20 -28 21 -28 1 0 -8 -3 -15 -8 -15 -8 0 -7 34 9 185
15 148 19 182 35 274 17 101 17 94 0 88 -7 -3 -17 -2 -22 3 -18 17 -49 -26
-71 -95 -11 -38 -37 -122 -56 -185 -72 -236 -71 -235 -95 -245 -12 -5 -25 -18
-28 -28 -3 -10 -8 -16 -10 -14 -5 5 99 447 115 490 6 15 8 34 5 42 -4 8 -1 15
6 15 6 0 10 8 8 18 -2 9 2 22 9 27 10 8 101 311 195 645 5 19 29 99 54 176 24
78 44 146 44 152 0 6 -9 14 -20 17 -24 8 -17 25 10 25 10 0 28 14 40 30 24 33
27 34 65 20z m115 -87 c0 -5 -5 -15 -10 -23 -8 -12 -10 -11 -10 8 0 12 5 22
10 22 6 0 10 -3 10 -7z m709 -103 c0 -62 -15 -32 -23 45 -5 57 -5 59 9 30 8
-16 14 -50 14 -75z m-345 33 c-10 -7 -34 -13 -53 -12 l-36 1 31 9 c17 5 39 18
50 30 17 20 19 20 23 3 2 -10 -5 -24 -15 -31z m-284 23 c0 -3 -4 -8 -10 -11
-5 -3 -10 -1 -10 4 0 6 5 11 10 11 6 0 10 -2 10 -4z m701 -287 c17 -62 15 -67
-13 -45 -13 10 -18 27 -18 66 0 65 9 58 31 -21z m56 -51 c-3 -8 -6 -5 -6 6 -1
11 2 17 5 13 3 -3 4 -12 1 -19z m-14 -108 c4 -15 0 -20 -13 -20 -13 0 -17 5
-13 20 3 11 9 20 13 20 4 0 10 -9 13 -20z m24 -2 c-3 -8 -6 -5 -6 6 -1 11 2
17 5 13 3 -3 4 -12 1 -19z m10 -80 c-2 -13 -4 -5 -4 17 -1 22 1 32 4 23 2 -10
2 -28 0 -40z m10 -70 c-3 -7 -5 -2 -5 12 0 14 2 19 5 13 2 -7 2 -19 0 -25z
m-1681 -243 c-4 -17 -2 -25 6 -25 9 -1 8 -4 -2 -10 -11 -6 -16 -27 -18 -69 -2
-52 1 -62 20 -75 12 -9 17 -16 10 -16 -7 0 -35 21 -62 46 -62 58 -67 95 -19
143 39 39 74 42 65 6z m1524 -95 c0 -22 -5 -40 -11 -40 -9 0 -11 54 -1 73 8
16 12 5 12 -33z m47 18 c-3 -8 -6 -5 -6 6 -1 11 2 17 5 13 3 -3 4 -12 1 -19z
m-448 -15 c6 -10 11 -14 11 -8 0 16 60 -55 61 -73 1 -9 2 -26 3 -37 2 -32 -23
-77 -40 -71 -9 3 -12 1 -9 -4 11 -18 -3 -11 -32 16 -26 24 -28 24 -40 8 -19
-26 -16 -3 3 24 9 13 13 26 10 29 -3 3 0 15 6 27 7 11 12 24 11 27 -1 3 9 4
22 1 20 -3 23 -1 18 17 -3 12 -10 21 -15 21 -10 0 -38 25 -38 34 0 13 20 5 29
-11z m-902 -45 c-3 -8 -6 -5 -6 6 -1 11 2 17 5 13 3 -3 4 -12 1 -19z m376 -7
c3 -11 0 -22 -7 -24 -6 -3 -11 6 -11 19 0 29 11 32 18 5z m-503 -244 c-56
-214 -79 -285 -80 -247 0 12 -2 13 -9 1 -7 -11 -10 -9 -15 7 -7 20 24 149 80
342 18 61 33 91 52 107 14 12 27 21 29 20 1 -2 -24 -105 -57 -230z m1430 217
c0 -11 -133 -265 -137 -261 -5 6 121 267 129 267 5 0 8 -3 8 -6z m-1310 -54
l-8 -35 -1 45 c-1 27 3 40 8 35 6 -6 6 -25 1 -45z m644 -120 c-1 -72 -5 -115
-12 -118 -6 -2 -8 -10 -5 -18 6 -16 -5 -18 -27 -4 -12 8 -13 11 -1 19 9 6 10
11 2 15 -12 8 -6 110 11 171 7 22 11 44 9 48 -1 5 4 7 11 5 10 -4 13 -34 12
-118z m468 18 c-7 -7 -12 -8 -12 -2 0 14 12 26 19 19 2 -3 -1 -11 -7 -17z
m-485 -184 c-3 -3 -12 -4 -19 -1 -8 3 -5 6 6 6 11 1 17 -2 13 -5z m-1042 -174
c-7 -12 8 -12 58 -1 38 9 50 -1 21 -17 -18 -10 -24 -96 -10 -144 9 -31 0 -35
-28 -15 -14 10 -15 18 -7 40 6 15 7 27 2 27 -5 0 -11 -7 -15 -15 -3 -8 -15
-15 -27 -15 -22 0 -22 0 -4 20 17 18 17 20 2 14 -25 -9 -21 11 8 42 31 33 32
40 3 20 -33 -23 -41 -20 -22 9 9 14 13 25 10 25 -4 0 -4 5 -1 10 3 6 8 10 11
10 3 0 2 -4 -1 -10z m184 -430 c0 -8 -7 -3 -15 13 -8 15 -12 33 -7 40 7 12 20
-20 22 -53z"/>
<path d="M1131 2214 c0 -11 3 -14 6 -6 3 7 2 16 -1 19 -3 4 -6 -2 -5 -13z"/>
<path d="M398 1335 c-5 -25 -4 -25 10 -11 12 11 13 19 5 27 -7 7 -12 3 -15
-16z"/>
<path d="M630 2313 c-40 -93 -77 -173 -82 -180 -10 -13 3 -25 17 -15 6 4 16
15 24 25 11 14 11 20 0 35 -13 15 -12 16 3 4 14 -12 19 -9 33 22 22 46 35 46
25 1 -4 -20 -4 -35 1 -35 10 0 13 33 10 91 -2 24 2 38 12 42 8 3 18 19 22 36
3 16 15 41 25 54 10 13 17 30 16 38 -5 24 -18 49 -26 49 -4 0 -40 -75 -80
-167z"/>
<path d="M1052 2448 c-18 -11 -31 -22 -28 -25 2 -3 30 -1 61 2 44 6 55 11 53
24 -5 23 -48 23 -86 -1z"/>
<path d="M4801 2436 c-6 -16 -10 -34 -8 -40 6 -17 29 33 24 52 -3 13 -7 10
-16 -12z"/>
<path d="M4862 2429 c-12 -19 -22 -28 -22 -21 0 24 -15 11 -34 -31 -11 -23
-22 -44 -26 -47 -3 -3 -18 -26 -33 -52 -23 -39 -26 -52 -17 -68 11 -21 11 -21
29 2 10 13 37 58 62 101 l44 79 37 -5 c41 -6 41 0 0 52 l-19 23 -21 -33z"/>
<path d="M1351 2407 c-17 -17 -13 -25 14 -23 14 0 25 6 25 12 0 17 -26 24 -39
11z"/>
<path d="M724 2375 c-9 -35 0 -41 14 -10 7 14 8 27 2 30 -5 3 -12 -6 -16 -20z"/>
<path d="M4618 2268 c18 -22 -12 -114 -47 -144 -14 -12 -23 -25 -19 -29 16
-17 110 125 100 153 -2 7 -13 17 -25 24 -19 10 -20 9 -9 -4z"/>
<path d="M4910 2261 c0 -22 73 -217 77 -205 4 11 -51 176 -68 204 -7 12 -8 12
-9 1z"/>
<path d="M4493 2227 c-30 -22 -43 -38 -43 -55 0 -13 -5 -33 -11 -44 -9 -16 -8
-19 3 -16 7 3 19 22 26 44 7 21 27 51 44 66 44 38 32 41 -19 5z"/>
<path d="M200 2183 l-31 -48 31 -13 c16 -6 30 -15 30 -18 0 -3 -4 -3 -9 0 -5
3 -12 -1 -15 -9 -3 -8 -9 -14 -13 -13 -18 6 -71 -25 -82 -48 -15 -34 -15 -34
24 -34 19 0 35 -5 35 -11 0 -5 5 -7 11 -3 7 4 10 -1 7 -12 -2 -12 -12 -19 -28
-20 -24 -1 -40 -6 -87 -24 -12 -5 -29 -23 -38 -40 -18 -35 -18 -35 21 -16 38
19 84 10 84 -15 0 -15 -7 -19 -36 -19 -19 0 -33 -4 -30 -9 3 -5 -2 -12 -12
-16 -14 -5 -12 -9 13 -20 l30 -13 -31 -1 c-48 -1 -58 -21 -30 -60 16 -21 27
-53 31 -92 4 -32 11 -59 17 -59 11 0 0 85 -15 115 -7 15 -2 13 21 -8 22 -21
31 -25 36 -15 3 7 3 3 0 -9 -7 -29 7 -29 34 0 29 31 28 49 -2 43 -16 -3 -27 1
-30 10 -3 9 -11 12 -17 8 -8 -5 -9 -3 -5 5 5 7 11 10 14 7 3 -3 11 -1 19 5 10
9 18 8 33 -6 18 -16 19 -15 41 32 20 43 101 237 149 354 18 44 18 48 2 62 -24
21 -72 43 -109 52 -31 6 -34 4 -63 -42z m-130 -428 c11 -13 10 -14 -4 -9 -9 3
-16 10 -16 15 0 13 6 11 20 -6z m40 -5 c0 -5 -4 -10 -10 -10 -5 0 -10 5 -10
10 0 6 5 10 10 10 6 0 10 -4 10 -10z m-40 -20 c8 -5 11 -10 5 -10 -5 0 -17 5
-25 10 -8 5 -10 10 -5 10 6 0 17 -5 25 -10z"/>
<path d="M4260 2211 c0 -5 5 -13 10 -16 6 -3 10 -2 10 4 0 5 -4 13 -10 16 -5
3 -10 2 -10 -4z"/>
<path d="M4657 2199 c-4 -16 -3 -18 9 -8 7 6 11 15 8 20 -8 13 -11 11 -17 -12z"/>
<path d="M4094 2198 c-3 -5 -12 -7 -19 -4 -9 3 -12 -2 -10 -14 4 -19 -19 -21
-57 -5 -19 7 -39 -21 -30 -44 3 -8 0 -11 -7 -7 -6 4 -11 2 -11 -4 0 -6 -5 -8
-10 -5 -6 4 -8 10 -5 15 3 4 -6 3 -20 -3 -14 -7 -25 -15 -25 -18 0 -10 80 -5
88 6 9 13 32 17 32 6 0 -5 -6 -11 -12 -14 -7 -3 2 -5 20 -4 17 0 32 4 32 9 0
4 -7 8 -15 8 -8 0 -15 5 -15 10 0 6 9 10 20 10 11 0 20 -7 20 -16 0 -11 7 -14
30 -10 17 2 30 0 30 -6 0 -18 25 -35 62 -41 21 -3 40 -2 43 3 6 10 -19 20 -51
20 -15 0 -24 6 -24 15 0 8 6 15 13 15 8 0 24 11 37 25 21 22 21 25 6 25 -12 0
-16 5 -12 15 3 10 -1 15 -12 16 -9 0 -34 1 -55 3 -21 2 -40 -1 -43 -6z m96
-22 c0 -2 -7 -7 -16 -10 -8 -3 -12 -2 -9 4 6 10 25 14 25 6z m-176 -21 c3 -8
1 -15 -3 -15 -5 0 -11 7 -15 15 -3 8 -1 15 3 15 5 0 11 -7 15 -15z"/>
<path d="M4895 2193 c4 -10 14 -37 22 -61 8 -24 17 -41 19 -39 6 5 -36 117
-43 117 -3 0 -2 -8 2 -17z"/>
<path d="M4228 2193 c7 -3 16 -2 19 1 4 3 -2 6 -13 5 -11 0 -14 -3 -6 -6z"/>
<path d="M4860 2176 c0 -8 -5 -16 -12 -18 -7 -3 -3 -20 14 -54 67 -127 108
-216 122 -263 18 -62 12 -66 -13 -8 -53 124 -64 142 -73 127 -5 -8 -24 -41
-42 -72 l-34 -57 19 -66 c11 -36 22 -65 24 -65 2 0 16 20 31 45 14 25 30 45
36 45 5 0 -6 -22 -26 -49 -39 -53 -42 -67 -24 -105 9 -20 14 -23 25 -15 14 13
15 11 19 -46 5 -69 10 -104 16 -110 3 -3 20 9 39 26 32 29 34 36 38 106 2 42
-1 79 -7 85 -6 6 -8 35 -5 66 3 38 -1 77 -12 117 -10 33 -18 74 -19 92 0 17
-4 34 -8 38 -4 4 -4 -4 -2 -17 3 -12 -6 4 -20 36 -15 33 -26 63 -26 67 0 4
-10 30 -22 58 -23 50 -38 65 -38 37z"/>
<path d="M4410 2165 c-11 -13 -10 -14 4 -9 9 3 16 10 16 15 0 13 -6 11 -20 -6z"/>
<path d="M4670 2160 c-6 -12 -18 -19 -25 -16 -9 3 -15 -4 -17 -22 -2 -21 -9
-28 -29 -30 -19 -2 -31 -14 -47 -45 -11 -23 -37 -58 -56 -76 -55 -53 -44 -73
13 -26 19 17 38 24 53 21 30 -5 60 20 87 72 23 45 60 63 86 42 8 -7 15 -10 15
-7 0 14 -24 57 -32 57 -4 0 -8 6 -8 14 0 7 -6 19 -14 25 -12 10 -17 8 -26 -9z"/>
<path d="M1866 2162 c-2 -4 -1 -14 5 -22 7 -12 9 -10 9 8 0 23 -5 28 -14 14z"/>
<path d="M2997 2163 c-12 -11 -8 -23 8 -23 8 0 15 -4 15 -9 0 -13 46 -5 70 12
18 13 19 15 5 21 -22 8 -90 8 -98 -1z"/>
<path d="M4345 2131 c-22 -11 -32 -20 -23 -20 9 -1 22 -3 30 -6 7 -3 18 6 25
20 6 14 10 25 10 25 -1 0 -20 -9 -42 -19z"/>
<path d="M615 2130 c-3 -5 -2 -10 4 -10 5 0 13 5 16 10 3 6 2 10 -4 10 -5 0
-13 -4 -16 -10z"/>
<path d="M2795 2130 c-3 -5 1 -10 10 -10 9 0 13 5 10 10 -3 6 -8 10 -10 10 -2
0 -7 -4 -10 -10z"/>
<path d="M3126 2128 c3 -5 10 -6 15 -3 13 9 11 12 -6 12 -8 0 -12 -4 -9 -9z"/>
<path d="M3870 2103 c0 -12 28 -38 34 -32 2 2 -5 13 -15 23 -11 11 -19 15 -19
9z"/>
<path d="M4266 2092 c-4 -7 -2 -12 5 -12 8 0 7 -5 -2 -17 -8 -9 -13 -19 -12
-22 1 -3 -13 -22 -32 -43 -19 -20 -35 -41 -35 -48 0 -6 -4 -9 -9 -6 -4 3 -19
-3 -31 -14 -49 -42 -50 -19 -4 43 27 34 53 65 58 69 19 13 -2 20 -36 13 -28
-7 -30 -9 -13 -15 16 -6 14 -8 -13 -13 -18 -4 -49 -19 -70 -34 l-36 -28 22 32
c13 18 32 39 43 47 19 13 19 14 -10 18 -16 2 -28 1 -25 -4 3 -4 -4 -8 -15 -8
-26 0 -28 -17 -3 -23 15 -4 15 -5 0 -6 -9 0 -20 4 -23 9 -8 14 -45 -6 -45 -25
0 -7 -5 -17 -11 -21 -8 -4 -9 1 -4 16 7 21 5 22 -19 16 -20 -5 -26 -3 -26 9 0
9 5 13 10 10 6 -3 10 -1 10 4 0 6 -12 11 -27 11 -22 0 -25 -2 -13 -10 13 -8
12 -11 -5 -24 -17 -14 -18 -17 -5 -26 8 -6 25 -8 38 -5 12 3 22 1 22 -5 0 -9
-14 -14 -32 -11 -12 2 -8 -121 5 -154 7 -17 19 -30 27 -29 8 0 23 2 33 2 10 1
17 10 17 22 0 13 5 17 14 14 11 -4 13 0 9 15 -3 12 -1 21 6 21 6 0 11 -4 11
-10 0 -5 5 -10 11 -10 5 0 7 5 4 10 -3 6 3 10 14 10 12 0 21 5 21 11 0 7 9 9
24 5 16 -4 36 3 66 23 46 31 79 31 87 0 3 -10 11 -15 19 -12 8 3 14 0 14 -6 0
-6 -9 -11 -21 -11 -15 0 -19 -5 -15 -17 13 -43 87 -386 100 -468 8 -49 17
-101 19 -115 11 -66 5 57 -8 170 -7 69 -17 172 -20 230 -6 108 -18 190 -37
248 -7 24 -7 37 1 45 23 23 3 117 -25 117 -7 0 -14 5 -16 12 -3 9 -6 9 -12 0z
m24 -32 c0 -5 -5 -10 -11 -10 -5 0 -7 5 -4 10 3 6 8 10 11 10 2 0 4 -4 4 -10z
m4 -42 c-3 -7 -17 -22 -32 -32 -27 -19 -27 -19 2 12 32 35 38 38 30 20z m-4
-111 c0 -5 -4 -5 -10 -2 -5 3 -10 14 -10 23 0 15 2 15 10 2 5 -8 10 -19 10
-23z m-220 19 c0 -3 -4 -8 -10 -11 -5 -3 -10 -1 -10 4 0 6 5 11 10 11 6 0 10
-2 10 -4z"/>
<path d="M545 2072 c-3 -10 4 -12 27 -10 17 2 33 8 35 13 5 15 -56 12 -62 -3z"/>
<path d="M4807 2083 c-11 -10 -8 -53 3 -53 6 0 10 -5 10 -11 0 -5 -5 -7 -12
-3 -8 5 -9 2 -5 -10 4 -10 7 -27 7 -38 0 -17 3 -18 15 -8 17 14 45 67 45 85 0
7 -11 20 -25 29 -28 18 -29 19 -38 9z"/>
<path d="M510 2059 c0 -5 5 -7 10 -4 6 3 10 8 10 11 0 2 -4 4 -10 4 -5 0 -10
-5 -10 -11z"/>
<path d="M4400 2055 c-20 -24 -6 -28 15 -5 10 11 13 20 8 20 -6 0 -16 -7 -23
-15z"/>
<path d="M558 2033 c-31 -5 -34 -13 -16 -31 17 -17 31 -15 24 3 -3 9 0 15 9
15 8 0 15 5 15 10 0 6 -1 9 -2 9 -2 -1 -15 -4 -30 -6z"/>
<path d="M3005 2026 l40 -14 -28 -11 c-40 -16 -60 -14 -53 4 3 8 2 15 -3 15
-17 0 -41 -81 -41 -135 0 -55 14 -81 25 -46 3 11 12 25 20 31 16 13 17 31 -9
-209 -9 -78 -23 -191 -31 -249 -8 -58 -14 -124 -14 -146 2 -32 3 -34 6 -11 2
17 12 98 23 180 11 83 27 202 35 265 8 63 15 118 15 122 0 4 7 5 15 2 8 -4 22
-1 30 6 11 9 18 9 30 -3 8 -9 15 -20 15 -25 0 -14 25 -22 39 -12 14 8 14 19
-1 38 -10 11 -4 16 15 13 4 0 7 4 7 9 0 6 14 10 30 10 17 0 30 -4 30 -10 0 -5
16 -10 36 -10 19 0 44 -5 55 -10 15 -9 19 -7 20 7 4 65 10 98 23 125 19 38 11
51 -12 21 -9 -11 -39 -31 -67 -44 -27 -13 -54 -25 -60 -28 -5 -2 -4 3 4 12 11
15 11 17 -2 17 -8 0 -17 -6 -20 -14 -4 -9 -14 -12 -27 -9 -19 5 -18 7 12 26
18 11 51 22 73 23 61 4 62 5 36 15 -34 14 -141 23 -141 12 0 -14 -120 -65
-136 -59 -8 3 -14 12 -14 19 0 17 71 40 96 30 11 -4 15 -3 11 4 -5 7 0 9 13 6
11 -3 20 0 20 6 0 6 -15 11 -34 11 -19 0 -36 4 -38 9 -1 5 -21 12 -43 15 l-40
5 40 -13z m290 -134 c-2 -2 -14 -5 -27 -6 -12 -2 -34 -6 -48 -10 -14 -4 -5 4
20 17 30 16 47 20 52 13 4 -6 5 -12 3 -14z"/>
<path d="M3814 2033 c-17 -3 -20 -9 -16 -31 4 -23 3 -25 -10 -15 -8 7 -19 9
-24 5 -4 -4 -2 1 5 11 7 9 10 18 5 18 -31 4 -41 3 -60 -9 -11 -6 -24 -9 -27
-5 -4 3 -7 1 -7 -6 0 -9 -5 -9 -22 0 -35 19 -88 19 -89 0 0 -10 -2 -12 -6 -3
-6 15 -43 16 -43 1 0 -8 -4 -8 -13 0 -10 8 -17 7 -25 -1 -6 -6 -22 -13 -34
-15 -36 -5 -55 -37 -66 -115 -10 -64 -7 -166 4 -177 11 -11 17 15 15 64 -1 33
2 55 8 55 7 0 11 -23 11 -56 0 -32 4 -53 10 -49 5 3 7 12 3 20 -3 10 1 15 15
15 21 0 32 18 32 51 0 10 4 19 9 19 13 0 95 -44 99 -52 2 -5 8 -8 13 -8 6 0 7
6 3 13 -4 6 -3 8 1 4 11 -9 16 -37 7 -36 -4 1 -22 1 -41 0 -54 -2 -27 -14 36
-17 74 -3 82 -5 80 -18 -1 -5 5 -11 13 -13 11 -3 16 5 18 23 1 15 3 28 5 29 1
1 26 5 55 9 l52 7 1 -93 c1 -51 5 -122 9 -158 5 -39 6 24 4 160 -5 251 -10
300 -28 300 -9 0 -12 9 -8 26 3 16 9 23 18 20 8 -3 21 -3 29 0 12 5 13 10 4
20 -6 8 -14 13 -18 13 -3 -1 -15 -4 -27 -6z m-225 -67 c-108 -78 -153 -106
-170 -106 -45 0 -13 32 82 83 92 49 143 62 88 23z m186 -26 c-9 -10 -25 -20
-35 -23 -17 -4 -18 -2 -8 16 14 28 28 37 45 30 11 -5 11 -9 -2 -23z m-231 -58
c3 -5 0 -9 -7 -9 -7 0 -20 -4 -29 -8 -11 -4 -18 -3 -18 3 0 6 10 13 23 15 12
2 23 5 24 6 1 0 4 -3 7 -7z m250 -11 c6 -9 -54 -25 -62 -16 -3 3 2 5 11 5 10
0 17 5 17 10 0 12 27 13 34 1z m-110 -46 c-1 -5 -13 -16 -28 -23 -14 -7 -26
-18 -26 -25 -1 -7 -8 0 -16 16 -8 15 -20 27 -27 28 -7 0 -3 4 8 8 27 11 90 8
89 -4z m2 -44 c0 -15 -3 -17 -18 -8 -13 8 -14 13 -5 19 18 12 23 10 23 -11z
m14 -41 c-8 -5 -19 -10 -25 -10 -5 0 -3 5 5 10 8 5 20 10 25 10 6 0 3 -5 -5
-10z"/>
<path d="M2810 2021 c-64 -7 -46 -21 26 -21 32 0 44 4 44 15 0 8 -3 14 -7 13
-5 -1 -33 -4 -63 -7z"/>
<path d="M4877 2004 c-28 -46 -67 -124 -61 -124 7 0 40 40 66 79 10 16 14 32
9 40 -5 7 -11 9 -14 5z"/>
<path d="M455 1970 c-3 -5 1 -10 10 -10 9 0 13 5 10 10 -3 6 -8 10 -10 10 -2
0 -7 -4 -10 -10z"/>
<path d="M4720 1935 c0 -5 5 -17 10 -25 5 -8 10 -10 10 -5 0 6 -5 17 -10 25
-5 8 -10 11 -10 5z"/>
<path d="M297 1790 c-56 -137 -65 -166 -48 -156 20 13 121 279 110 291 -3 2
-30 -59 -62 -135z"/>
<path d="M395 1909 c-4 -6 -5 -12 -2 -15 2 -3 7 2 10 11 7 17 1 20 -8 4z"/>
<path d="M2845 1890 c-3 -5 -1 -10 4 -10 6 0 11 5 11 10 0 6 -2 10 -4 10 -3 0
-8 -4 -11 -10z"/>
<path d="M4630 1893 c0 -6 7 -30 16 -54 9 -24 20 -57 24 -74 5 -16 20 -57 34
-90 41 -99 78 -254 87 -365 7 -94 7 -89 4 55 -3 143 -6 168 -31 235 -14 41
-30 77 -33 80 -4 3 -22 48 -41 100 -30 85 -60 142 -60 113z"/>
<path d="M1391 1854 c0 -11 3 -14 6 -6 3 7 2 16 -1 19 -3 4 -6 -2 -5 -13z"/>
<path d="M4751 1865 c0 -5 6 -21 14 -35 8 -14 14 -20 14 -15 0 6 -6 21 -14 35
-8 14 -14 21 -14 15z"/>
<path d="M4120 1836 c0 -9 5 -16 10 -16 6 0 10 4 10 9 0 6 -4 13 -10 16 -5 3
-10 -1 -10 -9z"/>
<path d="M3175 1830 c-4 -6 -3 -16 3 -22 6 -6 12 -6 17 2 4 6 3 16 -3 22 -6 6
-12 6 -17 -2z"/>
<path d="M2916 1747 c-3 -13 -13 -91 -21 -173 -21 -197 -26 -229 -36 -213 -4
7 -5 -7 -2 -32 3 -24 7 -45 8 -47 1 -1 16 86 34 194 18 108 37 210 42 227 5
19 5 35 -1 42 -5 7 -7 15 -3 18 3 4 2 7 -4 7 -6 0 -13 -11 -17 -23z"/>
<path d="M150 1721 c0 -6 5 -13 10 -16 6 -3 10 1 10 9 0 9 -4 16 -10 16 -5 0
-10 -4 -10 -9z"/>
<path d="M30 1682 c0 -26 47 -256 60 -292 4 -14 16 -60 26 -103 17 -77 38
-117 28 -55 -3 18 -11 70 -17 116 -7 45 -16 82 -22 82 -14 -2 -24 31 -18 60 4
20 2 22 -6 10 -8 -12 -11 -8 -11 19 0 46 -21 164 -32 176 -4 5 -8 0 -8 -13z"/>
<path d="M3625 1690 c3 -5 12 -10 20 -10 8 0 17 5 20 10 4 6 -5 10 -20 10 -15
0 -24 -4 -20 -10z"/>
<path d="M1741 1674 c0 -11 3 -14 6 -6 3 7 2 16 -1 19 -3 4 -6 -2 -5 -13z"/>
<path d="M3775 1680 c3 -5 13 -10 21 -10 8 0 12 5 9 10 -3 6 -13 10 -21 10 -8
0 -12 -4 -9 -10z"/>
<path d="M4825 1587 c4 -105 18 -157 45 -157 20 0 21 24 1 88 -11 37 -27 92
-35 122 l-15 55 4 -108z"/>
<path d="M1762 1645 c0 -16 2 -22 5 -12 2 9 2 23 0 30 -3 6 -5 -1 -5 -18z"/>
<path d="M3362 1664 c-36 -243 -62 -448 -59 -457 2 -7 7 11 11 38 4 28 18 118
32 202 14 83 24 169 21 190 -2 21 -4 33 -5 27z"/>
<path d="M3915 1626 c6 -57 11 -66 17 -34 2 13 -2 37 -9 53 -12 29 -13 28 -8
-19z"/>
<path d="M1758 1540 c3 -25 9 -40 17 -40 10 0 11 7 5 31 -5 18 -7 36 -4 40 3
5 -1 9 -8 9 -10 0 -12 -11 -10 -40z"/>
<path d="M186 1519 c-23 -56 -29 -115 -18 -169 9 -43 10 -42 10 31 0 56 6 90
21 124 24 54 24 55 12 55 -5 0 -16 -18 -25 -41z"/>
<path d="M1920 1501 c0 -5 5 -13 10 -16 6 -3 10 -2 10 4 0 5 -4 13 -10 16 -5
3 -10 2 -10 -4z"/>
<path d="M2822 1295 c0 -16 2 -22 5 -12 2 9 2 23 0 30 -3 6 -5 -1 -5 -18z"/>
<path d="M171 1284 c0 -11 3 -14 6 -6 3 7 2 16 -1 19 -3 4 -6 -2 -5 -13z"/>
<path d="M1801 1223 c-1 -6 -4 -20 -7 -30 -5 -17 -5 -17 6 0 6 10 9 23 6 30
-3 9 -5 9 -5 0z"/>
<path d="M2826 1211 c-4 -7 -5 -15 -2 -18 9 -9 19 4 14 18 -4 11 -6 11 -12 0z"/>
<path d="M4392 1195 c0 -16 2 -22 5 -12 2 9 2 23 0 30 -3 6 -5 -1 -5 -18z"/>
<path d="M2904 1115 c0 -49 1 -71 3 -48 2 23 2 64 0 90 -2 26 -3 8 -3 -42z"/>
<path d="M4458 1100 c2 -52 6 -97 8 -99 7 -8 2 144 -6 169 -4 14 -5 -18 -2
-70z"/>
<path d="M4782 1170 c0 -14 2 -19 5 -12 2 6 2 18 0 25 -3 6 -5 1 -5 -13z"/>
<path d="M1780 1160 c0 -5 5 -10 10 -10 6 0 10 5 10 10 0 6 -4 10 -10 10 -5 0
-10 -4 -10 -10z"/>
<path d="M4766 1109 c-8 -42 0 -50 9 -9 4 17 5 34 2 36 -2 3 -7 -10 -11 -27z"/>
<path d="M4720 990 c-6 -11 -8 -20 -6 -20 3 0 10 9 16 20 6 11 8 20 6 20 -3 0
-10 -9 -16 -20z"/>
<path d="M4392 960 c0 -14 2 -19 5 -12 2 6 2 18 0 25 -3 6 -5 1 -5 -13z"/>
<path d="M4442 910 c-16 -93 -54 -170 -110 -221 -24 -23 -40 -44 -37 -47 11
-11 100 91 123 141 21 45 47 166 40 188 -2 6 -9 -21 -16 -61z"/>
<path d="M3247 875 c-4 -8 -2 -17 3 -20 6 -4 10 -4 10 -1 0 2 3 11 6 20 3 9 2
16 -4 16 -5 0 -12 -7 -15 -15z"/>
<path d="M3250 823 c0 -13 5 -23 10 -23 13 0 13 11 0 30 -8 12 -10 11 -10 -7z"/>
</g>
</svg>
